<?xml version="1.0" encoding="UTF-8"?>
<svg xmlns="http://www.w3.org/2000/svg" id="icons" viewBox="0 0 60 60" width="512" height="512"><path d="M51.257,13.606l2.434-.484A3.335,3.335,0,0,0,55.857,11.6l3.832-6.4a2.125,2.125,0,0,0-.315-2.615L57.416.629A2.123,2.123,0,0,0,54.807.31L48.393,4.151a3.334,3.334,0,0,0-1.514,2.164L46.4,8.745a1.009,1.009,0,0,1-.275.512L31.93,23.448,23.579,15.1A11.879,11.879,0,0,0,21.727,4.961,12.061,12.061,0,0,0,10.282.123,2,2,0,0,0,9.163,3.509l5.521,5.52a1.011,1.011,0,0,1,.218,1.1l-1.285,2.98a.934.934,0,0,1-.511.516L10.142,14.89a1.01,1.01,0,0,1-1.115-.205L3.508,9.165a1.971,1.971,0,0,0-2.029-.48A2.006,2.006,0,0,0,.12,10.312,11.859,11.859,0,0,0,3.513,20.478,11.931,11.931,0,0,0,15.1,23.589L22.4,30.88A2.382,2.382,0,0,1,21.772,32a2.411,2.411,0,0,1-2.876.4,2.171,2.171,0,0,0-2.642.293L1.621,47.344a5.531,5.531,0,0,0,0,7.824L4.832,58.38a5.542,5.542,0,0,0,7.825,0L27.312,43.736a2.165,2.165,0,0,0,.288-2.621,2.388,2.388,0,0,1,1.521-3.509L42.015,50.5a9,9,0,0,0,15.352,6.858A8.994,8.994,0,0,0,50.5,42.016L36.554,28.07l14.19-14.189A1.008,1.008,0,0,1,51.257,13.606Zm-36.174,7.9A10.011,10.011,0,0,1,2.094,10.579L7.613,16.1a3.008,3.008,0,0,0,3.311.632l2.968-1.269a2.936,2.936,0,0,0,1.566-1.574L16.745,10.9A3.012,3.012,0,0,0,16.1,7.615L10.572,2.1A9.974,9.974,0,0,1,21.5,15.07a1,1,0,0,0,.243,1.019l8.773,8.773L28.9,26.479l-1.7-1.7a2.126,2.126,0,0,0-1.621-.615l-2.971-2.971a1,1,0,1,0-1.414,1.414l2.578,2.578-1.29,1.3A2.051,2.051,0,0,0,21.9,27.56L16.1,21.754A1,1,0,0,0,15.083,21.51ZM26.575,36.822a4.429,4.429,0,0,0-.708,5.293c.032.056.07.166.021.218L11.243,56.966a3.539,3.539,0,0,1-5,0L3.035,53.754a3.532,3.532,0,0,1,0-5L17.658,34.124a.122.122,0,0,1,.087-.032.321.321,0,0,1,.151.048A4.409,4.409,0,0,0,23.9,28.129c-.047-.084-.059-.181-.015-.224l1.7-1.711a.148.148,0,0,1,.2,0l8.023,8.022a.144.144,0,0,1,0,.194l-1.727,1.716c-.027.026-.119.022-.208-.026A4.428,4.428,0,0,0,26.575,36.822Zm22.838,6.936a1.026,1.026,0,0,0,.817.287,7,7,0,1,1-6.186,6.185,1,1,0,0,0-.287-.817L32.442,38.1a2,2,0,0,0,1.064-.567l1.31-1.3L41.8,43.218A1,1,0,0,0,43.217,41.8l-7.38-7.38a2.128,2.128,0,0,0-.615-1.622l-1.7-1.7,1.618-1.618Zm-17.3-14.07-1.795-1.795L47.535,10.671a2.975,2.975,0,0,0,.821-1.535l.483-2.425a1.324,1.324,0,0,1,.593-.852l6.406-3.837A.13.13,0,0,1,56,2.043L57.96,4a.132.132,0,0,1,.018.168l-3.829,6.391a1.325,1.325,0,0,1-.853.6l-2.43.484a2.989,2.989,0,0,0-1.536.821Z"/><path d="M51,56a5,5,0,1,0-5-5A5.006,5.006,0,0,0,51,56Zm0-8a3,3,0,1,1-3,3A3,3,0,0,1,51,48Z"/><path d="M19.172,37.62a1,1,0,0,0-1.414,0L5.63,49.747a1,1,0,1,0,1.414,1.414L19.172,39.034A1,1,0,0,0,19.172,37.62Z"/><path d="M20.967,40.829,8.84,52.956a1,1,0,1,0,1.414,1.414L22.381,42.243a1,1,0,0,0-1.414-1.414Z"/></svg>
